<mxfile host="app.diagrams.net" modified="2022-08-09T07:53:53.415Z" agent="5.0 (Windows NT 10.0; Win64; x64) AppleWebKit/537.36 (KHTML, like Gecko) Chrome/103.0.0.0 Safari/537.36" etag="16mUaJZQm2L-WXwnV1tC" version="20.2.3" type="github">
  <diagram id="GjpOPS8GUbDMK-W_BYCK" name="Page-1">
    <mxGraphModel dx="1038" dy="528" grid="1" gridSize="10" guides="1" tooltips="1" connect="1" arrows="1" fold="1" page="1" pageScale="1" pageWidth="850" pageHeight="1100" math="0" shadow="0">
      <root>
        <mxCell id="0" />
        <mxCell id="1" parent="0" />
        <mxCell id="5hr4HWsf4Ftkd_aSTjP--108" value="&lt;div style=&quot;text-align: justify&quot;&gt;ESP32 start dan memulai proses &lt;b&gt;measurement &lt;/b&gt;arus listrik yang kemudian data dari hasil pengukuran tersebut dikirim menuju firebase melalui&amp;nbsp;&lt;/div&gt;&lt;div style=&quot;text-align: justify&quot;&gt;&lt;span&gt;protokol HTTP.&amp;nbsp;&lt;/span&gt;&lt;span&gt;Data yang terkirim akan disimpan kedalam Firebase Cloud, data tersebut kemudian bisa diakses oleh berbagai perangkat gadget&lt;/span&gt;&lt;/div&gt;&lt;div style=&quot;text-align: justify&quot;&gt;&lt;span&gt;seperti komputer PC, Laptop maupun gadget seluler seperti smartphone atau tablet&lt;/span&gt;&lt;/div&gt;" style="text;html=1;align=left;verticalAlign=middle;resizable=0;points=[];autosize=1;fillColor=#fff2cc;strokeColor=#d6b656;" parent="1" vertex="1">
          <mxGeometry x="60" y="1030" width="780" height="50" as="geometry" />
        </mxCell>
        <mxCell id="Z0h7GTMCauXI6AeoXmrL-82" style="edgeStyle=orthogonalEdgeStyle;rounded=0;orthogonalLoop=1;jettySize=auto;html=1;exitX=0.5;exitY=0;exitDx=0;exitDy=0;" parent="1" source="yhknBi5prWKLQfZ3NRB1-35" edge="1">
          <mxGeometry relative="1" as="geometry">
            <mxPoint x="460" y="590" as="targetPoint" />
            <Array as="points">
              <mxPoint x="460" y="666" />
            </Array>
          </mxGeometry>
        </mxCell>
        <mxCell id="yhknBi5prWKLQfZ3NRB1-35" value="ESP32" style="shape=process;whiteSpace=wrap;html=1;backgroundOutline=1;rotation=0;" parent="1" vertex="1">
          <mxGeometry x="380" y="666" width="130" height="40" as="geometry" />
        </mxCell>
        <mxCell id="Z0h7GTMCauXI6AeoXmrL-69" style="edgeStyle=orthogonalEdgeStyle;rounded=0;orthogonalLoop=1;jettySize=auto;html=1;entryX=0.832;entryY=1.095;entryDx=0;entryDy=0;entryPerimeter=0;strokeColor=#999999;" parent="1" target="yhknBi5prWKLQfZ3NRB1-90" edge="1">
          <mxGeometry relative="1" as="geometry">
            <mxPoint x="470" y="450" as="sourcePoint" />
            <Array as="points">
              <mxPoint x="485" y="450" />
              <mxPoint x="670" y="450" />
            </Array>
          </mxGeometry>
        </mxCell>
        <mxCell id="Z0h7GTMCauXI6AeoXmrL-70" style="edgeStyle=orthogonalEdgeStyle;rounded=0;orthogonalLoop=1;jettySize=auto;html=1;strokeColor=#999999;" parent="1" source="yhknBi5prWKLQfZ3NRB1-37" edge="1">
          <mxGeometry relative="1" as="geometry">
            <mxPoint x="360" y="451" as="sourcePoint" />
            <mxPoint x="220" y="370" as="targetPoint" />
            <Array as="points">
              <mxPoint x="220" y="451" />
              <mxPoint x="220" y="370" />
            </Array>
          </mxGeometry>
        </mxCell>
        <mxCell id="Z0h7GTMCauXI6AeoXmrL-71" style="edgeStyle=orthogonalEdgeStyle;rounded=0;orthogonalLoop=1;jettySize=auto;html=1;exitX=0.5;exitY=0;exitDx=0;exitDy=0;entryX=0.523;entryY=1.239;entryDx=0;entryDy=0;entryPerimeter=0;" parent="1" source="yhknBi5prWKLQfZ3NRB1-37" target="Z0h7GTMCauXI6AeoXmrL-4" edge="1">
          <mxGeometry relative="1" as="geometry" />
        </mxCell>
        <mxCell id="Z0h7GTMCauXI6AeoXmrL-85" style="edgeStyle=orthogonalEdgeStyle;rounded=0;orthogonalLoop=1;jettySize=auto;html=1;exitX=0.375;exitY=1;exitDx=0;exitDy=0;" parent="1" source="yhknBi5prWKLQfZ3NRB1-37" edge="1">
          <mxGeometry relative="1" as="geometry">
            <mxPoint x="431.9655172413793" y="530" as="targetPoint" />
          </mxGeometry>
        </mxCell>
        <mxCell id="yhknBi5prWKLQfZ3NRB1-37" value="&lt;b&gt;Firebase&lt;/b&gt;" style="shape=hexagon;perimeter=hexagonPerimeter2;whiteSpace=wrap;html=1;fixedSize=1;size=15;strokeColor=#000000;" parent="1" vertex="1">
          <mxGeometry x="400" y="396" width="85" height="70" as="geometry" />
        </mxCell>
        <mxCell id="yhknBi5prWKLQfZ3NRB1-49" value="" style="group" parent="1" vertex="1" connectable="0">
          <mxGeometry x="375.5" y="533" width="120" height="50" as="geometry" />
        </mxCell>
        <mxCell id="yhknBi5prWKLQfZ3NRB1-50" value="Communication" style="swimlane;startSize=23;" parent="yhknBi5prWKLQfZ3NRB1-49" vertex="1">
          <mxGeometry x="20" y="4.17" width="100" height="45" as="geometry">
            <mxRectangle width="120" height="23" as="alternateBounds" />
          </mxGeometry>
        </mxCell>
        <mxCell id="yhknBi5prWKLQfZ3NRB1-51" value="HTTP" style="text;html=1;align=center;verticalAlign=middle;resizable=0;points=[];autosize=1;strokeColor=none;" parent="yhknBi5prWKLQfZ3NRB1-50" vertex="1">
          <mxGeometry x="25" y="25.000000000000004" width="50" height="20" as="geometry" />
        </mxCell>
        <mxCell id="yhknBi5prWKLQfZ3NRB1-52" value="&lt;span style=&quot;color: rgba(0 , 0 , 0 , 0) ; font-family: monospace ; font-size: 0px&quot;&gt;%3CmxGraphModel%3E%3Croot%3E%3CmxCell%20id%3D%220%22%2F%3E%3CmxCell%20id%3D%221%22%20parent%3D%220%22%2F%3E%3CmxCell%20id%3D%222%22%20value%3D%22Firebase%20Node%22%20style%3D%22text%3Bhtml%3D1%3Balign%3Dcenter%3BverticalAlign%3Dmiddle%3Bresizable%3D0%3Bpoints%3D%5B%5D%3Bautosize%3D1%3B%22%20vertex%3D%221%22%20parent%3D%221%22%3E%3CmxGeometry%20x%3D%22185%22%20y%3D%22550%22%20width%3D%2290%22%20height%3D%2220%22%20as%3D%22geometry%22%2F%3E%3C%2FmxCell%3E%3C%2Froot%3E%3C%2FmxGraphModel%3EF&lt;/span&gt;" style="text;html=1;align=center;verticalAlign=middle;resizable=0;points=[];autosize=1;strokeColor=none;" parent="yhknBi5prWKLQfZ3NRB1-49" vertex="1">
          <mxGeometry x="44" y="25" width="20" height="20" as="geometry" />
        </mxCell>
        <mxCell id="yhknBi5prWKLQfZ3NRB1-101" style="edgeStyle=orthogonalEdgeStyle;rounded=0;orthogonalLoop=1;jettySize=auto;html=1;exitX=0.25;exitY=0;exitDx=0;exitDy=0;entryX=0.167;entryY=1;entryDx=0;entryDy=0;entryPerimeter=0;" parent="1" source="yhknBi5prWKLQfZ3NRB1-79" target="yhknBi5prWKLQfZ3NRB1-96" edge="1">
          <mxGeometry relative="1" as="geometry" />
        </mxCell>
        <mxCell id="yhknBi5prWKLQfZ3NRB1-79" value="Raspberry Pi" style="shape=parallelogram;perimeter=parallelogramPerimeter;whiteSpace=wrap;html=1;fixedSize=1;" parent="1" vertex="1">
          <mxGeometry x="387.5" y="140" width="120" height="60" as="geometry" />
        </mxCell>
        <mxCell id="Z0h7GTMCauXI6AeoXmrL-73" style="edgeStyle=orthogonalEdgeStyle;rounded=0;orthogonalLoop=1;jettySize=auto;html=1;exitX=0.5;exitY=0;exitDx=0;exitDy=0;" parent="1" source="yhknBi5prWKLQfZ3NRB1-80" edge="1">
          <mxGeometry relative="1" as="geometry">
            <mxPoint x="442" y="200" as="targetPoint" />
          </mxGeometry>
        </mxCell>
        <mxCell id="Z0h7GTMCauXI6AeoXmrL-92" style="edgeStyle=orthogonalEdgeStyle;rounded=0;orthogonalLoop=1;jettySize=auto;html=1;exitX=0.25;exitY=1;exitDx=0;exitDy=0;" parent="1" source="yhknBi5prWKLQfZ3NRB1-80" edge="1">
          <mxGeometry relative="1" as="geometry">
            <mxPoint x="430" y="310" as="targetPoint" />
            <Array as="points">
              <mxPoint x="430" y="243" />
              <mxPoint x="430" y="310" />
            </Array>
          </mxGeometry>
        </mxCell>
        <mxCell id="yhknBi5prWKLQfZ3NRB1-80" value="Node-Red" style="rounded=1;whiteSpace=wrap;html=1;" parent="1" vertex="1">
          <mxGeometry x="392.5" y="223" width="100" height="20" as="geometry" />
        </mxCell>
        <mxCell id="yhknBi5prWKLQfZ3NRB1-104" style="edgeStyle=orthogonalEdgeStyle;rounded=0;orthogonalLoop=1;jettySize=auto;html=1;exitX=0.25;exitY=0;exitDx=0;exitDy=0;entryX=0.324;entryY=0.997;entryDx=0;entryDy=0;entryPerimeter=0;strokeColor=#999999;" parent="1" source="yhknBi5prWKLQfZ3NRB1-82" target="yhknBi5prWKLQfZ3NRB1-97" edge="1">
          <mxGeometry relative="1" as="geometry" />
        </mxCell>
        <mxCell id="Z0h7GTMCauXI6AeoXmrL-90" style="edgeStyle=orthogonalEdgeStyle;rounded=0;orthogonalLoop=1;jettySize=auto;html=1;exitX=0.25;exitY=1;exitDx=0;exitDy=0;strokeColor=#999999;" parent="1" source="yhknBi5prWKLQfZ3NRB1-82" edge="1">
          <mxGeometry relative="1" as="geometry">
            <mxPoint x="631.2758620689656" y="310" as="targetPoint" />
          </mxGeometry>
        </mxCell>
        <mxCell id="yhknBi5prWKLQfZ3NRB1-82" value="PC" style="rounded=0;whiteSpace=wrap;html=1;strokeColor=#999999;" parent="1" vertex="1">
          <mxGeometry x="616" y="140" width="60" height="60" as="geometry" />
        </mxCell>
        <mxCell id="yhknBi5prWKLQfZ3NRB1-98" style="edgeStyle=orthogonalEdgeStyle;rounded=0;orthogonalLoop=1;jettySize=auto;html=1;exitX=0.25;exitY=0;exitDx=0;exitDy=0;entryX=0.305;entryY=1.073;entryDx=0;entryDy=0;entryPerimeter=0;strokeColor=#999999;" parent="1" source="yhknBi5prWKLQfZ3NRB1-83" target="yhknBi5prWKLQfZ3NRB1-95" edge="1">
          <mxGeometry relative="1" as="geometry" />
        </mxCell>
        <mxCell id="Z0h7GTMCauXI6AeoXmrL-91" style="edgeStyle=orthogonalEdgeStyle;rounded=0;orthogonalLoop=1;jettySize=auto;html=1;exitX=0.25;exitY=1;exitDx=0;exitDy=0;strokeColor=#999999;" parent="1" source="yhknBi5prWKLQfZ3NRB1-83" edge="1">
          <mxGeometry relative="1" as="geometry">
            <mxPoint x="214.72413793103453" y="310" as="targetPoint" />
          </mxGeometry>
        </mxCell>
        <mxCell id="yhknBi5prWKLQfZ3NRB1-83" value="Smart&lt;br&gt;Phone" style="rounded=0;whiteSpace=wrap;html=1;strokeColor=#999999;" parent="1" vertex="1">
          <mxGeometry x="200" y="140" width="60" height="60" as="geometry" />
        </mxCell>
        <mxCell id="yhknBi5prWKLQfZ3NRB1-88" value="" style="group;strokeColor=#999999;" parent="1" vertex="1" connectable="0">
          <mxGeometry x="580" y="313" width="120" height="50" as="geometry" />
        </mxCell>
        <mxCell id="yhknBi5prWKLQfZ3NRB1-89" value="Communication" style="swimlane;startSize=23;strokeColor=#999999;fontColor=#999999;" parent="yhknBi5prWKLQfZ3NRB1-88" vertex="1">
          <mxGeometry x="20" y="4.17" width="100" height="45" as="geometry">
            <mxRectangle width="120" height="23" as="alternateBounds" />
          </mxGeometry>
        </mxCell>
        <mxCell id="yhknBi5prWKLQfZ3NRB1-90" value="&lt;font color=&quot;#999999&quot;&gt;Internet&lt;/font&gt;" style="text;html=1;align=center;verticalAlign=middle;resizable=0;points=[];autosize=1;strokeColor=#999999;" parent="yhknBi5prWKLQfZ3NRB1-89" vertex="1">
          <mxGeometry x="20" y="25.000000000000004" width="60" height="20" as="geometry" />
        </mxCell>
        <mxCell id="yhknBi5prWKLQfZ3NRB1-91" value="&lt;span style=&quot;color: rgba(0 , 0 , 0 , 0) ; font-family: monospace ; font-size: 0px&quot;&gt;%3CmxGraphModel%3E%3Croot%3E%3CmxCell%20id%3D%220%22%2F%3E%3CmxCell%20id%3D%221%22%20parent%3D%220%22%2F%3E%3CmxCell%20id%3D%222%22%20value%3D%22Firebase%20Node%22%20style%3D%22text%3Bhtml%3D1%3Balign%3Dcenter%3BverticalAlign%3Dmiddle%3Bresizable%3D0%3Bpoints%3D%5B%5D%3Bautosize%3D1%3B%22%20vertex%3D%221%22%20parent%3D%221%22%3E%3CmxGeometry%20x%3D%22185%22%20y%3D%22550%22%20width%3D%2290%22%20height%3D%2220%22%20as%3D%22geometry%22%2F%3E%3C%2FmxCell%3E%3C%2Froot%3E%3C%2FmxGraphModel%3EF&lt;/span&gt;" style="text;html=1;align=center;verticalAlign=middle;resizable=0;points=[];autosize=1;strokeColor=#999999;" parent="yhknBi5prWKLQfZ3NRB1-88" vertex="1">
          <mxGeometry x="44" y="25" width="20" height="20" as="geometry" />
        </mxCell>
        <mxCell id="Z0h7GTMCauXI6AeoXmrL-76" style="edgeStyle=orthogonalEdgeStyle;rounded=0;orthogonalLoop=1;jettySize=auto;html=1;exitX=0.5;exitY=0;exitDx=0;exitDy=0;strokeColor=#999999;" parent="1" source="yhknBi5prWKLQfZ3NRB1-92" edge="1">
          <mxGeometry relative="1" as="geometry">
            <mxPoint x="240" y="210" as="targetPoint" />
            <Array as="points">
              <mxPoint x="240" y="317" />
              <mxPoint x="240" y="210" />
            </Array>
          </mxGeometry>
        </mxCell>
        <mxCell id="Z0h7GTMCauXI6AeoXmrL-89" style="edgeStyle=orthogonalEdgeStyle;rounded=0;orthogonalLoop=1;jettySize=auto;html=1;exitX=1;exitY=1;exitDx=0;exitDy=0;strokeColor=#999999;" parent="1" source="yhknBi5prWKLQfZ3NRB1-92" edge="1">
          <mxGeometry relative="1" as="geometry">
            <mxPoint x="400" y="416" as="targetPoint" />
            <Array as="points">
              <mxPoint x="250" y="362" />
              <mxPoint x="250" y="416" />
            </Array>
          </mxGeometry>
        </mxCell>
        <mxCell id="yhknBi5prWKLQfZ3NRB1-92" value="Communication" style="swimlane;startSize=23;strokeColor=#999999;fontColor=#999999;" parent="1" vertex="1">
          <mxGeometry x="180" y="317" width="100" height="45" as="geometry">
            <mxRectangle width="120" height="23" as="alternateBounds" />
          </mxGeometry>
        </mxCell>
        <mxCell id="yhknBi5prWKLQfZ3NRB1-93" value="&lt;font color=&quot;#999999&quot;&gt;Internet&lt;/font&gt;" style="text;html=1;align=center;verticalAlign=middle;resizable=0;points=[];autosize=1;strokeColor=#999999;" parent="yhknBi5prWKLQfZ3NRB1-92" vertex="1">
          <mxGeometry x="20" y="25.000000000000004" width="60" height="20" as="geometry" />
        </mxCell>
        <mxCell id="yhknBi5prWKLQfZ3NRB1-99" style="edgeStyle=orthogonalEdgeStyle;rounded=0;orthogonalLoop=1;jettySize=auto;html=1;exitX=0.665;exitY=1;exitDx=0;exitDy=0;entryX=0.75;entryY=0;entryDx=0;entryDy=0;exitPerimeter=0;strokeColor=#999999;" parent="1" source="yhknBi5prWKLQfZ3NRB1-95" target="yhknBi5prWKLQfZ3NRB1-83" edge="1">
          <mxGeometry relative="1" as="geometry">
            <Array as="points" />
          </mxGeometry>
        </mxCell>
        <mxCell id="yhknBi5prWKLQfZ3NRB1-95" value="Mobile Apps" style="rounded=1;whiteSpace=wrap;html=1;strokeColor=#999999;" parent="1" vertex="1">
          <mxGeometry x="185" y="80" width="90" height="30" as="geometry" />
        </mxCell>
        <mxCell id="yhknBi5prWKLQfZ3NRB1-102" style="edgeStyle=orthogonalEdgeStyle;rounded=0;orthogonalLoop=1;jettySize=auto;html=1;exitX=0.75;exitY=1;exitDx=0;exitDy=0;entryX=0.688;entryY=0;entryDx=0;entryDy=0;entryPerimeter=0;" parent="1" source="yhknBi5prWKLQfZ3NRB1-96" target="yhknBi5prWKLQfZ3NRB1-79" edge="1">
          <mxGeometry relative="1" as="geometry" />
        </mxCell>
        <mxCell id="yhknBi5prWKLQfZ3NRB1-96" value="Web Apps&lt;br&gt;[Grafana]" style="rounded=1;whiteSpace=wrap;html=1;" parent="1" vertex="1">
          <mxGeometry x="402.5" y="60" width="90" height="50" as="geometry" />
        </mxCell>
        <mxCell id="yhknBi5prWKLQfZ3NRB1-105" style="edgeStyle=orthogonalEdgeStyle;rounded=0;orthogonalLoop=1;jettySize=auto;html=1;exitX=0.75;exitY=1;exitDx=0;exitDy=0;entryX=0.89;entryY=-0.044;entryDx=0;entryDy=0;entryPerimeter=0;strokeColor=#999999;" parent="1" source="yhknBi5prWKLQfZ3NRB1-97" target="yhknBi5prWKLQfZ3NRB1-82" edge="1">
          <mxGeometry relative="1" as="geometry" />
        </mxCell>
        <mxCell id="yhknBi5prWKLQfZ3NRB1-97" value="Web Apps" style="rounded=1;whiteSpace=wrap;html=1;strokeColor=#999999;" parent="1" vertex="1">
          <mxGeometry x="601" y="80" width="90" height="30" as="geometry" />
        </mxCell>
        <mxCell id="Z0h7GTMCauXI6AeoXmrL-2" value="" style="group" parent="1" vertex="1" connectable="0">
          <mxGeometry x="371.5" y="312" width="120" height="50" as="geometry" />
        </mxCell>
        <mxCell id="Z0h7GTMCauXI6AeoXmrL-3" value="Communication" style="swimlane;startSize=23;" parent="Z0h7GTMCauXI6AeoXmrL-2" vertex="1">
          <mxGeometry x="20" y="4.17" width="100" height="45" as="geometry">
            <mxRectangle width="120" height="23" as="alternateBounds" />
          </mxGeometry>
        </mxCell>
        <mxCell id="Z0h7GTMCauXI6AeoXmrL-4" value="Firebase Node" style="text;html=1;align=center;verticalAlign=middle;resizable=0;points=[];autosize=1;strokeColor=none;" parent="Z0h7GTMCauXI6AeoXmrL-3" vertex="1">
          <mxGeometry x="5" y="25.000000000000004" width="90" height="20" as="geometry" />
        </mxCell>
        <mxCell id="Z0h7GTMCauXI6AeoXmrL-5" value="&lt;span style=&quot;color: rgba(0 , 0 , 0 , 0) ; font-family: monospace ; font-size: 0px&quot;&gt;%3CmxGraphModel%3E%3Croot%3E%3CmxCell%20id%3D%220%22%2F%3E%3CmxCell%20id%3D%221%22%20parent%3D%220%22%2F%3E%3CmxCell%20id%3D%222%22%20value%3D%22Firebase%20Node%22%20style%3D%22text%3Bhtml%3D1%3Balign%3Dcenter%3BverticalAlign%3Dmiddle%3Bresizable%3D0%3Bpoints%3D%5B%5D%3Bautosize%3D1%3B%22%20vertex%3D%221%22%20parent%3D%221%22%3E%3CmxGeometry%20x%3D%22185%22%20y%3D%22550%22%20width%3D%2290%22%20height%3D%2220%22%20as%3D%22geometry%22%2F%3E%3C%2FmxCell%3E%3C%2Froot%3E%3C%2FmxGraphModel%3EF&lt;/span&gt;" style="text;html=1;align=center;verticalAlign=middle;resizable=0;points=[];autosize=1;strokeColor=none;" parent="Z0h7GTMCauXI6AeoXmrL-2" vertex="1">
          <mxGeometry x="44" y="25" width="20" height="20" as="geometry" />
        </mxCell>
        <mxCell id="Z0h7GTMCauXI6AeoXmrL-67" style="edgeStyle=orthogonalEdgeStyle;rounded=0;orthogonalLoop=1;jettySize=auto;html=1;exitX=0.5;exitY=0;exitDx=0;exitDy=0;" parent="1" source="Z0h7GTMCauXI6AeoXmrL-34" edge="1">
          <mxGeometry relative="1" as="geometry">
            <mxPoint x="500" y="570" as="targetPoint" />
            <Array as="points">
              <mxPoint x="630" y="666" />
              <mxPoint x="630" y="570" />
              <mxPoint x="520" y="570" />
            </Array>
          </mxGeometry>
        </mxCell>
        <mxCell id="Z0h7GTMCauXI6AeoXmrL-34" value="ESP32" style="shape=process;whiteSpace=wrap;html=1;backgroundOutline=1;rotation=0;" parent="1" vertex="1">
          <mxGeometry x="581" y="666" width="130" height="40" as="geometry" />
        </mxCell>
        <mxCell id="Z0h7GTMCauXI6AeoXmrL-45" value="" style="endArrow=none;html=1;entryX=0.5;entryY=1;entryDx=0;entryDy=0;exitX=0.5;exitY=0;exitDx=0;exitDy=0;" parent="1" source="Z0h7GTMCauXI6AeoXmrL-56" target="Z0h7GTMCauXI6AeoXmrL-48" edge="1">
          <mxGeometry width="50" height="50" relative="1" as="geometry">
            <mxPoint x="298.9999999999999" y="996" as="sourcePoint" />
            <mxPoint x="298.9999999999999" y="821" as="targetPoint" />
          </mxGeometry>
        </mxCell>
        <mxCell id="Z0h7GTMCauXI6AeoXmrL-46" value="" style="endArrow=none;html=1;entryX=0.5;entryY=1;entryDx=0;entryDy=0;exitX=0.5;exitY=0;exitDx=0;exitDy=0;" parent="1" source="Z0h7GTMCauXI6AeoXmrL-62" target="Z0h7GTMCauXI6AeoXmrL-49" edge="1">
          <mxGeometry width="50" height="50" relative="1" as="geometry">
            <mxPoint x="294" y="836" as="sourcePoint" />
            <mxPoint x="344" y="786" as="targetPoint" />
          </mxGeometry>
        </mxCell>
        <mxCell id="Z0h7GTMCauXI6AeoXmrL-47" value="&lt;font style=&quot;font-size: 9px&quot;&gt;Sensor&lt;/font&gt;" style="ellipse;whiteSpace=wrap;html=1;aspect=fixed;rotation=0;" parent="1" vertex="1">
          <mxGeometry x="159" y="771" width="40" height="40" as="geometry" />
        </mxCell>
        <mxCell id="Z0h7GTMCauXI6AeoXmrL-48" value="&lt;font style=&quot;font-size: 9px&quot;&gt;Control&lt;/font&gt;" style="ellipse;whiteSpace=wrap;html=1;aspect=fixed;rotation=0;" parent="1" vertex="1">
          <mxGeometry x="214" y="771" width="40" height="40" as="geometry" />
        </mxCell>
        <mxCell id="Z0h7GTMCauXI6AeoXmrL-49" value="&lt;font style=&quot;font-size: 6px&quot;&gt;Measurement&lt;/font&gt;" style="ellipse;whiteSpace=wrap;html=1;aspect=fixed;rotation=0;" parent="1" vertex="1">
          <mxGeometry x="269" y="771" width="40" height="40" as="geometry" />
        </mxCell>
        <mxCell id="Z0h7GTMCauXI6AeoXmrL-50" style="edgeStyle=orthogonalEdgeStyle;rounded=0;orthogonalLoop=1;jettySize=auto;html=1;exitX=0.5;exitY=0;exitDx=0;exitDy=0;entryX=0.5;entryY=1;entryDx=0;entryDy=0;" parent="1" source="Z0h7GTMCauXI6AeoXmrL-47" target="Z0h7GTMCauXI6AeoXmrL-53" edge="1">
          <mxGeometry x="139" y="226" as="geometry" />
        </mxCell>
        <mxCell id="Z0h7GTMCauXI6AeoXmrL-51" style="edgeStyle=orthogonalEdgeStyle;rounded=0;orthogonalLoop=1;jettySize=auto;html=1;exitX=1;exitY=0;exitDx=0;exitDy=0;" parent="1" source="Z0h7GTMCauXI6AeoXmrL-48" edge="1">
          <mxGeometry x="139" y="226" as="geometry">
            <mxPoint x="250" y="740" as="targetPoint" />
          </mxGeometry>
        </mxCell>
        <mxCell id="Z0h7GTMCauXI6AeoXmrL-52" style="edgeStyle=orthogonalEdgeStyle;rounded=0;orthogonalLoop=1;jettySize=auto;html=1;exitX=0.5;exitY=0;exitDx=0;exitDy=0;entryX=0.5;entryY=1;entryDx=0;entryDy=0;" parent="1" source="Z0h7GTMCauXI6AeoXmrL-49" target="Z0h7GTMCauXI6AeoXmrL-53" edge="1">
          <mxGeometry x="139" y="226" as="geometry" />
        </mxCell>
        <mxCell id="Z0h7GTMCauXI6AeoXmrL-77" style="edgeStyle=orthogonalEdgeStyle;rounded=0;orthogonalLoop=1;jettySize=auto;html=1;exitX=0.75;exitY=0;exitDx=0;exitDy=0;" parent="1" source="Z0h7GTMCauXI6AeoXmrL-53" edge="1">
          <mxGeometry relative="1" as="geometry">
            <mxPoint x="390" y="571" as="targetPoint" />
            <Array as="points">
              <mxPoint x="250" y="666" />
              <mxPoint x="250" y="571" />
            </Array>
          </mxGeometry>
        </mxCell>
        <mxCell id="Z0h7GTMCauXI6AeoXmrL-53" value="ESP32" style="shape=process;whiteSpace=wrap;html=1;backgroundOutline=1;rotation=0;" parent="1" vertex="1">
          <mxGeometry x="169" y="666" width="130" height="40" as="geometry" />
        </mxCell>
        <mxCell id="Z0h7GTMCauXI6AeoXmrL-54" value="&lt;font style=&quot;font-size: 10px&quot;&gt;Status&lt;/font&gt;" style="shape=document;whiteSpace=wrap;html=1;boundedLbl=1;" parent="1" vertex="1">
          <mxGeometry x="159" y="836" width="40" height="20" as="geometry" />
        </mxCell>
        <mxCell id="Z0h7GTMCauXI6AeoXmrL-55" value="&lt;font style=&quot;font-size: 10px&quot;&gt;Analog&lt;/font&gt;" style="shape=document;whiteSpace=wrap;html=1;boundedLbl=1;" parent="1" vertex="1">
          <mxGeometry x="214" y="836" width="40" height="20" as="geometry" />
        </mxCell>
        <mxCell id="Z0h7GTMCauXI6AeoXmrL-56" value="&lt;font style=&quot;font-size: 10px&quot;&gt;Digital&lt;/font&gt;" style="shape=document;whiteSpace=wrap;html=1;boundedLbl=1;" parent="1" vertex="1">
          <mxGeometry x="214" y="866" width="40" height="20" as="geometry" />
        </mxCell>
        <mxCell id="Z0h7GTMCauXI6AeoXmrL-57" value="&lt;font style=&quot;font-size: 10px&quot;&gt;Voltage&lt;/font&gt;" style="shape=document;whiteSpace=wrap;html=1;boundedLbl=1;size=0.5;" parent="1" vertex="1">
          <mxGeometry x="269" y="836" width="40" height="20" as="geometry" />
        </mxCell>
        <mxCell id="Z0h7GTMCauXI6AeoXmrL-58" value="&lt;font style=&quot;font-size: 10px&quot;&gt;Current&lt;/font&gt;" style="shape=document;whiteSpace=wrap;html=1;boundedLbl=1;size=0.5;" parent="1" vertex="1">
          <mxGeometry x="269" y="866" width="40" height="20" as="geometry" />
        </mxCell>
        <mxCell id="Z0h7GTMCauXI6AeoXmrL-59" value="&lt;font style=&quot;font-size: 10px&quot;&gt;Power&lt;/font&gt;" style="shape=document;whiteSpace=wrap;html=1;boundedLbl=1;size=0.5;" parent="1" vertex="1">
          <mxGeometry x="269" y="896" width="40" height="20" as="geometry" />
        </mxCell>
        <mxCell id="Z0h7GTMCauXI6AeoXmrL-60" value="&lt;font style=&quot;font-size: 10px&quot;&gt;Energy&lt;/font&gt;" style="shape=document;whiteSpace=wrap;html=1;boundedLbl=1;size=0.5;" parent="1" vertex="1">
          <mxGeometry x="269" y="926" width="40" height="20" as="geometry" />
        </mxCell>
        <mxCell id="Z0h7GTMCauXI6AeoXmrL-61" value="&lt;font style=&quot;font-size: 10px&quot;&gt;Frequency&lt;/font&gt;" style="shape=document;whiteSpace=wrap;html=1;boundedLbl=1;size=0.5;" parent="1" vertex="1">
          <mxGeometry x="264" y="956" width="50" height="20" as="geometry" />
        </mxCell>
        <mxCell id="Z0h7GTMCauXI6AeoXmrL-62" value="&lt;font style=&quot;font-size: 10px&quot;&gt;PF&lt;/font&gt;" style="shape=document;whiteSpace=wrap;html=1;boundedLbl=1;size=0.5;" parent="1" vertex="1">
          <mxGeometry x="271.5" y="986" width="35" height="20" as="geometry" />
        </mxCell>
        <mxCell id="Z0h7GTMCauXI6AeoXmrL-63" value="" style="endArrow=none;html=1;entryX=0.5;entryY=1;entryDx=0;entryDy=0;exitX=0.5;exitY=0;exitDx=0;exitDy=0;" parent="1" source="Z0h7GTMCauXI6AeoXmrL-54" target="Z0h7GTMCauXI6AeoXmrL-47" edge="1">
          <mxGeometry width="50" height="50" relative="1" as="geometry">
            <mxPoint x="243.9999999999999" y="876" as="sourcePoint" />
            <mxPoint x="243.9999999999999" y="821" as="targetPoint" />
          </mxGeometry>
        </mxCell>
        <mxCell id="Z0h7GTMCauXI6AeoXmrL-68" style="edgeStyle=orthogonalEdgeStyle;rounded=0;orthogonalLoop=1;jettySize=auto;html=1;exitX=0.609;exitY=-0.058;exitDx=0;exitDy=0;exitPerimeter=0;" parent="1" source="yhknBi5prWKLQfZ3NRB1-50" edge="1">
          <mxGeometry relative="1" as="geometry">
            <mxPoint x="456" y="470" as="targetPoint" />
            <Array as="points">
              <mxPoint x="456" y="509" />
              <mxPoint x="456" y="480" />
            </Array>
          </mxGeometry>
        </mxCell>
        <mxCell id="Z0h7GTMCauXI6AeoXmrL-74" style="edgeStyle=orthogonalEdgeStyle;rounded=0;orthogonalLoop=1;jettySize=auto;html=1;exitX=0.5;exitY=0;exitDx=0;exitDy=0;" parent="1" source="Z0h7GTMCauXI6AeoXmrL-3" edge="1">
          <mxGeometry relative="1" as="geometry">
            <mxPoint x="460" y="250" as="targetPoint" />
            <Array as="points">
              <mxPoint x="460" y="316" />
              <mxPoint x="460" y="250" />
            </Array>
          </mxGeometry>
        </mxCell>
        <mxCell id="Z0h7GTMCauXI6AeoXmrL-75" style="edgeStyle=orthogonalEdgeStyle;rounded=0;orthogonalLoop=1;jettySize=auto;html=1;exitX=0.5;exitY=0;exitDx=0;exitDy=0;strokeColor=#999999;" parent="1" source="yhknBi5prWKLQfZ3NRB1-89" edge="1">
          <mxGeometry relative="1" as="geometry">
            <mxPoint x="660" y="210" as="targetPoint" />
            <Array as="points">
              <mxPoint x="660" y="317" />
              <mxPoint x="660" y="210" />
            </Array>
          </mxGeometry>
        </mxCell>
        <mxCell id="Z0h7GTMCauXI6AeoXmrL-79" style="edgeStyle=orthogonalEdgeStyle;rounded=0;orthogonalLoop=1;jettySize=auto;html=1;exitX=0;exitY=0.25;exitDx=0;exitDy=0;" parent="1" source="yhknBi5prWKLQfZ3NRB1-50" edge="1">
          <mxGeometry relative="1" as="geometry">
            <mxPoint x="220" y="659.9999999999998" as="targetPoint" />
          </mxGeometry>
        </mxCell>
        <mxCell id="Z0h7GTMCauXI6AeoXmrL-81" style="edgeStyle=orthogonalEdgeStyle;rounded=0;orthogonalLoop=1;jettySize=auto;html=1;exitX=1;exitY=0.25;exitDx=0;exitDy=0;entryX=0.6;entryY=0.029;entryDx=0;entryDy=0;entryPerimeter=0;" parent="1" source="yhknBi5prWKLQfZ3NRB1-50" target="Z0h7GTMCauXI6AeoXmrL-34" edge="1">
          <mxGeometry relative="1" as="geometry" />
        </mxCell>
        <mxCell id="Z0h7GTMCauXI6AeoXmrL-83" style="edgeStyle=orthogonalEdgeStyle;rounded=0;orthogonalLoop=1;jettySize=auto;html=1;exitX=0.25;exitY=1;exitDx=0;exitDy=0;" parent="1" source="yhknBi5prWKLQfZ3NRB1-50" edge="1">
          <mxGeometry relative="1" as="geometry">
            <mxPoint x="430" y="660" as="targetPoint" />
            <Array as="points">
              <mxPoint x="430" y="582" />
            </Array>
          </mxGeometry>
        </mxCell>
        <mxCell id="Z0h7GTMCauXI6AeoXmrL-87" style="edgeStyle=orthogonalEdgeStyle;rounded=0;orthogonalLoop=1;jettySize=auto;html=1;exitX=0.25;exitY=1;exitDx=0;exitDy=0;entryX=1;entryY=0.25;entryDx=0;entryDy=0;strokeColor=#999999;" parent="1" source="yhknBi5prWKLQfZ3NRB1-89" target="yhknBi5prWKLQfZ3NRB1-37" edge="1">
          <mxGeometry relative="1" as="geometry">
            <mxPoint x="490" y="416" as="targetPoint" />
            <Array as="points">
              <mxPoint x="625" y="416" />
            </Array>
          </mxGeometry>
        </mxCell>
        <mxCell id="Z0h7GTMCauXI6AeoXmrL-97" style="edgeStyle=orthogonalEdgeStyle;rounded=0;orthogonalLoop=1;jettySize=auto;html=1;entryX=0;entryY=0;entryDx=0;entryDy=0;" parent="1" target="Z0h7GTMCauXI6AeoXmrL-48" edge="1">
          <mxGeometry x="149" y="236" as="geometry">
            <mxPoint x="220" y="740" as="sourcePoint" />
            <mxPoint x="210" y="770" as="targetPoint" />
            <Array as="points">
              <mxPoint x="220" y="760" />
              <mxPoint x="220" y="760" />
            </Array>
          </mxGeometry>
        </mxCell>
        <mxCell id="Z0h7GTMCauXI6AeoXmrL-98" value="" style="endArrow=none;html=1;entryX=0.5;entryY=1;entryDx=0;entryDy=0;exitX=0.5;exitY=0;exitDx=0;exitDy=0;" parent="1" source="Z0h7GTMCauXI6AeoXmrL-108" target="Z0h7GTMCauXI6AeoXmrL-101" edge="1">
          <mxGeometry width="50" height="50" relative="1" as="geometry">
            <mxPoint x="511.9999999999999" y="996" as="sourcePoint" />
            <mxPoint x="511.9999999999999" y="821" as="targetPoint" />
          </mxGeometry>
        </mxCell>
        <mxCell id="Z0h7GTMCauXI6AeoXmrL-99" value="" style="endArrow=none;html=1;entryX=0.5;entryY=1;entryDx=0;entryDy=0;exitX=0.5;exitY=0;exitDx=0;exitDy=0;" parent="1" source="Z0h7GTMCauXI6AeoXmrL-114" target="Z0h7GTMCauXI6AeoXmrL-102" edge="1">
          <mxGeometry width="50" height="50" relative="1" as="geometry">
            <mxPoint x="507" y="836" as="sourcePoint" />
            <mxPoint x="557" y="786" as="targetPoint" />
          </mxGeometry>
        </mxCell>
        <mxCell id="Z0h7GTMCauXI6AeoXmrL-100" value="&lt;font style=&quot;font-size: 9px&quot;&gt;Sensor&lt;/font&gt;" style="ellipse;whiteSpace=wrap;html=1;aspect=fixed;rotation=0;" parent="1" vertex="1">
          <mxGeometry x="372" y="771" width="40" height="40" as="geometry" />
        </mxCell>
        <mxCell id="Z0h7GTMCauXI6AeoXmrL-101" value="&lt;font style=&quot;font-size: 9px&quot;&gt;Control&lt;/font&gt;" style="ellipse;whiteSpace=wrap;html=1;aspect=fixed;rotation=0;" parent="1" vertex="1">
          <mxGeometry x="427" y="771" width="40" height="40" as="geometry" />
        </mxCell>
        <mxCell id="Z0h7GTMCauXI6AeoXmrL-102" value="&lt;font style=&quot;font-size: 6px&quot;&gt;Measurement&lt;/font&gt;" style="ellipse;whiteSpace=wrap;html=1;aspect=fixed;rotation=0;" parent="1" vertex="1">
          <mxGeometry x="482" y="771" width="40" height="40" as="geometry" />
        </mxCell>
        <mxCell id="Z0h7GTMCauXI6AeoXmrL-103" style="edgeStyle=orthogonalEdgeStyle;rounded=0;orthogonalLoop=1;jettySize=auto;html=1;exitX=0.5;exitY=0;exitDx=0;exitDy=0;entryX=0.5;entryY=1;entryDx=0;entryDy=0;" parent="1" source="Z0h7GTMCauXI6AeoXmrL-100" edge="1">
          <mxGeometry x="352" y="226" as="geometry">
            <mxPoint x="447" y="706" as="targetPoint" />
          </mxGeometry>
        </mxCell>
        <mxCell id="Z0h7GTMCauXI6AeoXmrL-104" style="edgeStyle=orthogonalEdgeStyle;rounded=0;orthogonalLoop=1;jettySize=auto;html=1;exitX=1;exitY=0;exitDx=0;exitDy=0;" parent="1" source="Z0h7GTMCauXI6AeoXmrL-101" edge="1">
          <mxGeometry x="352" y="226" as="geometry">
            <mxPoint x="463" y="739.9999999999998" as="targetPoint" />
          </mxGeometry>
        </mxCell>
        <mxCell id="Z0h7GTMCauXI6AeoXmrL-105" style="edgeStyle=orthogonalEdgeStyle;rounded=0;orthogonalLoop=1;jettySize=auto;html=1;exitX=0.5;exitY=0;exitDx=0;exitDy=0;entryX=0.5;entryY=1;entryDx=0;entryDy=0;" parent="1" source="Z0h7GTMCauXI6AeoXmrL-102" edge="1">
          <mxGeometry x="352" y="226" as="geometry">
            <mxPoint x="447" y="706" as="targetPoint" />
          </mxGeometry>
        </mxCell>
        <mxCell id="Z0h7GTMCauXI6AeoXmrL-106" value="&lt;font style=&quot;font-size: 10px&quot;&gt;Status&lt;/font&gt;" style="shape=document;whiteSpace=wrap;html=1;boundedLbl=1;" parent="1" vertex="1">
          <mxGeometry x="372" y="836" width="40" height="20" as="geometry" />
        </mxCell>
        <mxCell id="Z0h7GTMCauXI6AeoXmrL-107" value="&lt;font style=&quot;font-size: 10px&quot;&gt;Analog&lt;/font&gt;" style="shape=document;whiteSpace=wrap;html=1;boundedLbl=1;" parent="1" vertex="1">
          <mxGeometry x="427" y="836" width="40" height="20" as="geometry" />
        </mxCell>
        <mxCell id="Z0h7GTMCauXI6AeoXmrL-108" value="&lt;font style=&quot;font-size: 10px&quot;&gt;Digital&lt;/font&gt;" style="shape=document;whiteSpace=wrap;html=1;boundedLbl=1;" parent="1" vertex="1">
          <mxGeometry x="427" y="866" width="40" height="20" as="geometry" />
        </mxCell>
        <mxCell id="Z0h7GTMCauXI6AeoXmrL-109" value="&lt;font style=&quot;font-size: 10px&quot;&gt;Voltage&lt;/font&gt;" style="shape=document;whiteSpace=wrap;html=1;boundedLbl=1;size=0.5;" parent="1" vertex="1">
          <mxGeometry x="482" y="836" width="40" height="20" as="geometry" />
        </mxCell>
        <mxCell id="Z0h7GTMCauXI6AeoXmrL-110" value="&lt;font style=&quot;font-size: 10px&quot;&gt;Current&lt;/font&gt;" style="shape=document;whiteSpace=wrap;html=1;boundedLbl=1;size=0.5;" parent="1" vertex="1">
          <mxGeometry x="482" y="866" width="40" height="20" as="geometry" />
        </mxCell>
        <mxCell id="Z0h7GTMCauXI6AeoXmrL-111" value="&lt;font style=&quot;font-size: 10px&quot;&gt;Power&lt;/font&gt;" style="shape=document;whiteSpace=wrap;html=1;boundedLbl=1;size=0.5;" parent="1" vertex="1">
          <mxGeometry x="482" y="896" width="40" height="20" as="geometry" />
        </mxCell>
        <mxCell id="Z0h7GTMCauXI6AeoXmrL-112" value="&lt;font style=&quot;font-size: 10px&quot;&gt;Energy&lt;/font&gt;" style="shape=document;whiteSpace=wrap;html=1;boundedLbl=1;size=0.5;" parent="1" vertex="1">
          <mxGeometry x="482" y="926" width="40" height="20" as="geometry" />
        </mxCell>
        <mxCell id="Z0h7GTMCauXI6AeoXmrL-113" value="&lt;font style=&quot;font-size: 10px&quot;&gt;Frequency&lt;/font&gt;" style="shape=document;whiteSpace=wrap;html=1;boundedLbl=1;size=0.5;" parent="1" vertex="1">
          <mxGeometry x="477" y="956" width="50" height="20" as="geometry" />
        </mxCell>
        <mxCell id="Z0h7GTMCauXI6AeoXmrL-114" value="&lt;font style=&quot;font-size: 10px&quot;&gt;PF&lt;/font&gt;" style="shape=document;whiteSpace=wrap;html=1;boundedLbl=1;size=0.5;" parent="1" vertex="1">
          <mxGeometry x="484.5" y="986" width="35" height="20" as="geometry" />
        </mxCell>
        <mxCell id="Z0h7GTMCauXI6AeoXmrL-115" value="" style="endArrow=none;html=1;entryX=0.5;entryY=1;entryDx=0;entryDy=0;exitX=0.5;exitY=0;exitDx=0;exitDy=0;" parent="1" source="Z0h7GTMCauXI6AeoXmrL-106" target="Z0h7GTMCauXI6AeoXmrL-100" edge="1">
          <mxGeometry width="50" height="50" relative="1" as="geometry">
            <mxPoint x="456.9999999999999" y="876" as="sourcePoint" />
            <mxPoint x="456.9999999999999" y="821" as="targetPoint" />
          </mxGeometry>
        </mxCell>
        <mxCell id="Z0h7GTMCauXI6AeoXmrL-116" style="edgeStyle=orthogonalEdgeStyle;rounded=0;orthogonalLoop=1;jettySize=auto;html=1;entryX=0;entryY=0;entryDx=0;entryDy=0;" parent="1" target="Z0h7GTMCauXI6AeoXmrL-101" edge="1">
          <mxGeometry x="362" y="236" as="geometry">
            <mxPoint x="433" y="739.9999999999998" as="sourcePoint" />
            <mxPoint x="423" y="770" as="targetPoint" />
            <Array as="points">
              <mxPoint x="433" y="760" />
              <mxPoint x="433" y="760" />
            </Array>
          </mxGeometry>
        </mxCell>
        <mxCell id="Z0h7GTMCauXI6AeoXmrL-117" value="" style="endArrow=none;html=1;entryX=0.5;entryY=1;entryDx=0;entryDy=0;exitX=0.5;exitY=0;exitDx=0;exitDy=0;" parent="1" source="Z0h7GTMCauXI6AeoXmrL-127" target="Z0h7GTMCauXI6AeoXmrL-120" edge="1">
          <mxGeometry width="50" height="50" relative="1" as="geometry">
            <mxPoint x="711.9999999999999" y="996" as="sourcePoint" />
            <mxPoint x="711.9999999999999" y="821" as="targetPoint" />
          </mxGeometry>
        </mxCell>
        <mxCell id="Z0h7GTMCauXI6AeoXmrL-118" value="" style="endArrow=none;html=1;entryX=0.5;entryY=1;entryDx=0;entryDy=0;exitX=0.5;exitY=0;exitDx=0;exitDy=0;" parent="1" source="Z0h7GTMCauXI6AeoXmrL-133" target="Z0h7GTMCauXI6AeoXmrL-121" edge="1">
          <mxGeometry width="50" height="50" relative="1" as="geometry">
            <mxPoint x="707" y="836" as="sourcePoint" />
            <mxPoint x="757" y="786" as="targetPoint" />
          </mxGeometry>
        </mxCell>
        <mxCell id="Z0h7GTMCauXI6AeoXmrL-119" value="&lt;font style=&quot;font-size: 9px&quot;&gt;Sensor&lt;/font&gt;" style="ellipse;whiteSpace=wrap;html=1;aspect=fixed;rotation=0;" parent="1" vertex="1">
          <mxGeometry x="572" y="771" width="40" height="40" as="geometry" />
        </mxCell>
        <mxCell id="Z0h7GTMCauXI6AeoXmrL-120" value="&lt;font style=&quot;font-size: 9px&quot;&gt;Control&lt;/font&gt;" style="ellipse;whiteSpace=wrap;html=1;aspect=fixed;rotation=0;" parent="1" vertex="1">
          <mxGeometry x="627" y="771" width="40" height="40" as="geometry" />
        </mxCell>
        <mxCell id="Z0h7GTMCauXI6AeoXmrL-121" value="&lt;font style=&quot;font-size: 6px&quot;&gt;Measurement&lt;/font&gt;" style="ellipse;whiteSpace=wrap;html=1;aspect=fixed;rotation=0;" parent="1" vertex="1">
          <mxGeometry x="682" y="771" width="40" height="40" as="geometry" />
        </mxCell>
        <mxCell id="Z0h7GTMCauXI6AeoXmrL-122" style="edgeStyle=orthogonalEdgeStyle;rounded=0;orthogonalLoop=1;jettySize=auto;html=1;exitX=0.5;exitY=0;exitDx=0;exitDy=0;entryX=0.5;entryY=1;entryDx=0;entryDy=0;" parent="1" source="Z0h7GTMCauXI6AeoXmrL-119" edge="1">
          <mxGeometry x="552" y="226" as="geometry">
            <mxPoint x="647" y="706" as="targetPoint" />
          </mxGeometry>
        </mxCell>
        <mxCell id="Z0h7GTMCauXI6AeoXmrL-123" style="edgeStyle=orthogonalEdgeStyle;rounded=0;orthogonalLoop=1;jettySize=auto;html=1;exitX=1;exitY=0;exitDx=0;exitDy=0;" parent="1" source="Z0h7GTMCauXI6AeoXmrL-120" edge="1">
          <mxGeometry x="552" y="226" as="geometry">
            <mxPoint x="663" y="739.9999999999998" as="targetPoint" />
          </mxGeometry>
        </mxCell>
        <mxCell id="Z0h7GTMCauXI6AeoXmrL-124" style="edgeStyle=orthogonalEdgeStyle;rounded=0;orthogonalLoop=1;jettySize=auto;html=1;exitX=0.5;exitY=0;exitDx=0;exitDy=0;entryX=0.5;entryY=1;entryDx=0;entryDy=0;" parent="1" source="Z0h7GTMCauXI6AeoXmrL-121" edge="1">
          <mxGeometry x="552" y="226" as="geometry">
            <mxPoint x="647" y="706" as="targetPoint" />
          </mxGeometry>
        </mxCell>
        <mxCell id="Z0h7GTMCauXI6AeoXmrL-125" value="&lt;font style=&quot;font-size: 10px&quot;&gt;Status&lt;/font&gt;" style="shape=document;whiteSpace=wrap;html=1;boundedLbl=1;" parent="1" vertex="1">
          <mxGeometry x="572" y="836" width="40" height="20" as="geometry" />
        </mxCell>
        <mxCell id="Z0h7GTMCauXI6AeoXmrL-126" value="&lt;font style=&quot;font-size: 10px&quot;&gt;Analog&lt;/font&gt;" style="shape=document;whiteSpace=wrap;html=1;boundedLbl=1;" parent="1" vertex="1">
          <mxGeometry x="627" y="836" width="40" height="20" as="geometry" />
        </mxCell>
        <mxCell id="Z0h7GTMCauXI6AeoXmrL-127" value="&lt;font style=&quot;font-size: 10px&quot;&gt;Digital&lt;/font&gt;" style="shape=document;whiteSpace=wrap;html=1;boundedLbl=1;" parent="1" vertex="1">
          <mxGeometry x="627" y="866" width="40" height="20" as="geometry" />
        </mxCell>
        <mxCell id="Z0h7GTMCauXI6AeoXmrL-128" value="&lt;font style=&quot;font-size: 10px&quot;&gt;Voltage&lt;/font&gt;" style="shape=document;whiteSpace=wrap;html=1;boundedLbl=1;size=0.5;" parent="1" vertex="1">
          <mxGeometry x="682" y="836" width="40" height="20" as="geometry" />
        </mxCell>
        <mxCell id="Z0h7GTMCauXI6AeoXmrL-129" value="&lt;font style=&quot;font-size: 10px&quot;&gt;Current&lt;/font&gt;" style="shape=document;whiteSpace=wrap;html=1;boundedLbl=1;size=0.5;" parent="1" vertex="1">
          <mxGeometry x="682" y="866" width="40" height="20" as="geometry" />
        </mxCell>
        <mxCell id="Z0h7GTMCauXI6AeoXmrL-130" value="&lt;font style=&quot;font-size: 10px&quot;&gt;Power&lt;/font&gt;" style="shape=document;whiteSpace=wrap;html=1;boundedLbl=1;size=0.5;" parent="1" vertex="1">
          <mxGeometry x="682" y="896" width="40" height="20" as="geometry" />
        </mxCell>
        <mxCell id="Z0h7GTMCauXI6AeoXmrL-131" value="&lt;font style=&quot;font-size: 10px&quot;&gt;Energy&lt;/font&gt;" style="shape=document;whiteSpace=wrap;html=1;boundedLbl=1;size=0.5;" parent="1" vertex="1">
          <mxGeometry x="682" y="926" width="40" height="20" as="geometry" />
        </mxCell>
        <mxCell id="Z0h7GTMCauXI6AeoXmrL-132" value="&lt;font style=&quot;font-size: 10px&quot;&gt;Frequency&lt;/font&gt;" style="shape=document;whiteSpace=wrap;html=1;boundedLbl=1;size=0.5;" parent="1" vertex="1">
          <mxGeometry x="677" y="956" width="50" height="20" as="geometry" />
        </mxCell>
        <mxCell id="Z0h7GTMCauXI6AeoXmrL-133" value="&lt;font style=&quot;font-size: 10px&quot;&gt;PF&lt;/font&gt;" style="shape=document;whiteSpace=wrap;html=1;boundedLbl=1;size=0.5;" parent="1" vertex="1">
          <mxGeometry x="684.5" y="986" width="35" height="20" as="geometry" />
        </mxCell>
        <mxCell id="Z0h7GTMCauXI6AeoXmrL-134" value="" style="endArrow=none;html=1;entryX=0.5;entryY=1;entryDx=0;entryDy=0;exitX=0.5;exitY=0;exitDx=0;exitDy=0;" parent="1" source="Z0h7GTMCauXI6AeoXmrL-125" target="Z0h7GTMCauXI6AeoXmrL-119" edge="1">
          <mxGeometry width="50" height="50" relative="1" as="geometry">
            <mxPoint x="656.9999999999999" y="876" as="sourcePoint" />
            <mxPoint x="656.9999999999999" y="821" as="targetPoint" />
          </mxGeometry>
        </mxCell>
        <mxCell id="Z0h7GTMCauXI6AeoXmrL-135" style="edgeStyle=orthogonalEdgeStyle;rounded=0;orthogonalLoop=1;jettySize=auto;html=1;entryX=0;entryY=0;entryDx=0;entryDy=0;" parent="1" target="Z0h7GTMCauXI6AeoXmrL-120" edge="1">
          <mxGeometry x="562" y="236" as="geometry">
            <mxPoint x="633" y="739.9999999999998" as="sourcePoint" />
            <mxPoint x="623" y="770" as="targetPoint" />
            <Array as="points">
              <mxPoint x="633" y="760" />
              <mxPoint x="633" y="760" />
            </Array>
          </mxGeometry>
        </mxCell>
        <mxCell id="Z0h7GTMCauXI6AeoXmrL-136" value="&lt;b&gt;&lt;font style=&quot;font-size: 17px&quot;&gt;1&lt;/font&gt;&lt;/b&gt;" style="text;html=1;strokeColor=none;fillColor=none;align=center;verticalAlign=middle;whiteSpace=wrap;rounded=0;" parent="1" vertex="1">
          <mxGeometry x="271.5" y="646" width="40" height="20" as="geometry" />
        </mxCell>
        <mxCell id="Z0h7GTMCauXI6AeoXmrL-137" value="&lt;b&gt;&lt;font style=&quot;font-size: 17px&quot;&gt;2&lt;/font&gt;&lt;/b&gt;" style="text;html=1;strokeColor=none;fillColor=none;align=center;verticalAlign=middle;whiteSpace=wrap;rounded=0;" parent="1" vertex="1">
          <mxGeometry x="481.5" y="646" width="40" height="20" as="geometry" />
        </mxCell>
        <mxCell id="Z0h7GTMCauXI6AeoXmrL-138" value="&lt;b&gt;&lt;font style=&quot;font-size: 17px&quot;&gt;... n&lt;/font&gt;&lt;/b&gt;" style="text;html=1;strokeColor=none;fillColor=none;align=center;verticalAlign=middle;whiteSpace=wrap;rounded=0;" parent="1" vertex="1">
          <mxGeometry x="675.5" y="646" width="40" height="20" as="geometry" />
        </mxCell>
      </root>
    </mxGraphModel>
  </diagram>
</mxfile>
